<?xml version="1.0" encoding="UTF-8"?>
<svg id="Layer_1" data-name="Layer 1" xmlns="http://www.w3.org/2000/svg" viewBox="0 0 500 500">
  <defs>
    <style>
      .cls-1 {
        opacity: .97;
      }

      .cls-2 {
        stroke-linecap: round;
        stroke-linejoin: round;
        stroke-width: 9.54px;
      }

      .cls-2, .cls-3 {
        fill: none;
        stroke: #fff;
      }

      .cls-3 {
        stroke-miterlimit: 10;
        stroke-width: 9.54px;
      }
    </style>
  </defs>
  <g class="cls-1">
    <circle id="Ellipse_48" data-name="Ellipse 48" class="cls-2" cx="250" cy="249.99" r="215.69"/>
  </g>
  <path class="cls-3" d="M306.69,212.11l-150.04,122.5c-2.89,2.35-3.31,6.6-.94,9.48l18.04,21.9c2.26,2.75,6.28,3.26,9.15,1.15,17.11-12.55,71.43-53.06,76.07-64.91,5.52-14.08,65.83-67.56,65.83-67.56l-18.1-22.56Z"/>
  <path class="cls-3" d="M264.43,159.44l91.93,114.58c2.24,2.79,6.32,3.23,9.1.98l36-29.17c2.77-2.25,3.2-6.32.94-9.09l-54.33-66.79c-5.5-6.76-12.5-12.15-20.45-15.74h0c-8.95-4.04-18.8-5.66-28.57-4.69l-31.76,3.13c-3.32.33-4.95,4.2-2.86,6.8Z"/>
  <path class="cls-3" d="M352.03,174.8l11.04-8.98c3.34-2.72,8.24-2.24,11,1.06l8.91,10.66c2.81,3.37,2.33,8.38-1.07,11.15l-11.19,9.1,20.2,24.83-46.11,37"/>
  <path class="cls-3" d="M251.68,257.03l-55.01-44.91-18.1,22.56s26.55,23.68,45.77,44.68"/>
  <path class="cls-3" d="M278.24,278.71l68.47,55.9c2.89,2.35,3.31,6.6.94,9.48l-18.04,21.9c-2.26,2.75-6.28,3.26-9.15,1.15-15.82-11.61-57.47-41.55-68.2-56.19"/>
  <path class="cls-3" d="M238.93,159.44l-91.93,114.58c-2.24,2.79-6.32,3.23-9.1.98l-36-29.17c-2.77-2.25-3.2-6.32-.94-9.09l54.33-66.79c5.5-6.76,12.5-12.15,20.45-15.74h0c8.95-4.04,18.8-5.66,28.57-4.69l31.76,3.13c3.32.33,4.95,4.2,2.86,6.8Z"/>
  <path class="cls-3" d="M151.33,174.8l-11.04-8.98c-3.34-2.72-8.24-2.24-11,1.06l-8.91,10.66c-2.81,3.37-2.33,8.38,1.07,11.15l11.19,9.1-20.2,24.83,46.11,37"/>
</svg>